<svg id="Layer_1" data-name="Layer 1" xmlns="http://www.w3.org/2000/svg" viewBox="0 0 3274.66 696.59"><defs><style>.cls-1{fill:#fff;}.cls-2{fill:#34e0a1;}</style></defs><title>Tripadvisor_Logo_dark-bg_circle-green_horizontal-lockup_registered_RGB</title><path class="cls-1" d="M3347.48,557.21a18.41,18.41,0,1,0,18.41,18.41A18.43,18.43,0,0,0,3347.48,557.21Zm0,33.92A15.51,15.51,0,1,1,3363,575.62,15.52,15.52,0,0,1,3347.48,591.13Zm6-18.64c0-3.35-2.39-5.34-5.86-5.34h-5.89V583.9h2.89v-6.07h3.14l3,6.07h3.11l-3.35-6.7A4.84,4.84,0,0,0,3353.46,572.49Zm-6,2.77h-2.85v-5.55h2.85c1.94,0,3.11,1,3.11,2.78S3349.39,575.26,3347.45,575.26ZM1129.51,370.94V326.43h-68.26V591.29h68.26V432.48c0-28.77,18.46-42.88,47.23-42.88h37.34V326.43h-31.92C1157.2,326.43,1135.48,339.45,1129.51,370.94ZM1278,221.65c-23.33,0-41.25,18.46-41.25,41.8a41.26,41.26,0,0,0,82.51,0C1319.29,240.11,1301.37,221.65,1278,221.65Zm-34,369.64h68.09V326.43H1244Zm392.5-132.43a136.91,136.91,0,0,1-136.91,136.9,131.74,131.74,0,0,1-80.36-26.87V669h-68.09V326.43h68.09v22.4A131.74,131.74,0,0,1,1499.58,322,136.91,136.91,0,0,1,1636.49,458.86Zm-68.54,0a74.37,74.37,0,1,0-74.36,74.37A74.37,74.37,0,0,0,1568,458.86Zm1252.22-23.24-39.73-10.9c-26.14-6.8-36.32-14.83-36.32-28.63,0-13.47,14.31-22.88,34.79-22.88,19.51,0,34.79,12.79,34.79,29.1v1.51h62.77v-1.51c0-48.06-39.21-80.36-97.56-80.36-57.8,0-99.76,32.27-99.76,76.73,0,34.6,22.93,60.65,62.92,71.48l38,10.38c28.9,8,39.65,16.88,39.65,32.79,0,16.78-15.53,28.06-38.65,28.06-24.11,0-40.31-15.24-40.31-37.92V502h-66.62v1.51c0,54.34,43.74,92.29,106.38,92.29,60.36,0,104.17-37.07,104.17-88.14C2884.74,482.63,2873.53,449.86,2820.17,435.62ZM1878.08,326.43h68.09V591.29h-68.09v-22.4a131.74,131.74,0,0,1-80.37,26.87,136.91,136.91,0,0,1,0-273.81,131.75,131.75,0,0,1,80.37,26.88Zm0,132.44v0a74.37,74.37,0,1,0-74.37,74.38A74.37,74.37,0,0,0,1878.08,458.85Zm314-226.72h68.08V591.29h-68.08v-22.4a131.79,131.79,0,0,1-80.37,26.87,136.91,136.91,0,1,1,0-273.81,131.79,131.79,0,0,1,80.37,26.88Zm0,226.71a74.37,74.37,0,1,0-74.37,74.37A74.37,74.37,0,0,0,2192.08,458.86Zm384.31,132.43h68.08V326.43h-68.08Zm34-369.64c-23.34,0-41.25,18.46-41.25,41.8a41.25,41.25,0,0,0,82.5,0C2651.68,240.11,2633.77,221.65,2610.43,221.65Zm568.68,237.21A136.91,136.91,0,1,1,3042.2,322,136.91,136.91,0,0,1,3179.11,458.86Zm-62.54,0a74.37,74.37,0,1,0-74.37,74.37A74.37,74.37,0,0,0,3116.57,458.86ZM1094.64,232.15H833.4v60.76h96.69V591.29h67.85V292.91h96.7ZM2415.8,518.76l-60.57-192.33H2283.7l90.86,264.86h82l91.39-264.86h-71.53Zm863.1-147.82V326.43h-68.26V591.29h68.26V432.48c0-28.77,18.46-42.88,47.23-42.88h37.34V326.43h-31.92C3306.58,326.43,3284.87,339.45,3278.9,370.94Z" transform="translate(-91.23 -91.77)"/><circle class="cls-2" cx="348.29" cy="348.29" r="348.29"/><path d="M654.63,372.09l42-45.75H603.47a291.18,291.18,0,0,0-327.6,0H182.43l42,45.75A128.48,128.48,0,1,0,398.36,561.28l41.19,44.81,41.16-44.79A128.5,128.5,0,1,0,654.63,372.09ZM311,554A87,87,0,1,1,398,467,87,87,0,0,1,311,554Zm128.51-89.45c0-57.22-41.62-106.32-96.51-127.31a250.84,250.84,0,0,1,193,0C481.16,358.23,439.55,407.32,439.55,464.54ZM568,554A87,87,0,1,1,655,467,87,87,0,0,1,568,554Zm0-132.53A45.58,45.58,0,1,0,613.58,467,45.58,45.58,0,0,0,568,421.46ZM356.62,467A45.58,45.58,0,1,1,311,421.46,45.58,45.58,0,0,1,356.62,467Z" transform="translate(-91.23 -91.77)"/></svg>